<svg xmlns="http://www.w3.org/2000/svg" width="373.3746337890625" height="265.4189147949219" viewBox="-277.2705078125 -42.9786262512207 373.3746337890625 265.4189147949219"><title>Neo4j Graph Visualization</title><desc>Created using Neo4j (http://www.neo4j.com/)</desc><g class="layer relationships"><g class="relationship" transform="translate(-185.24618269671782 55.043015234090404) rotate(478.4356574838256)"><path class="outline" fill="#A5ABB6" stroke="none" d="M 6.953439040707552 24.018736134675446 L 17.306200844808384 62.65576918623819 A 17.916697508022974 17.916697508022974 0 1 1 -17.306200844808384 62.65576918623819 L -8.765172356425198 30.780216918698923 L -4.901469051268926 31.815493099109005 L -6.4704761275630185 24.148145657226706 L -11.662949835292403 30.00375978339136 L -7.79924653013613 31.039035963801442 L -16.340275018519314 62.91458823134071 A 16.916697508022974 16.916697508022974 0 1 0 16.340275018519314 62.91458823134071 L 5.987513214418485 24.277555179777966 Z"/><text text-anchor="middle" pointer-events="none" font-size="8px" fill="#000000" x="0" y="94.20964923467838" transform="rotate(180 0 91.20964923467838)" font-family="sans-serif">KNOWS</text></g><g class="relationship" transform="translate(0.6453786872648379 55.9898401024457) rotate(191.70372178825477)"><path class="outline" fill="#A5ABB6" stroke="none" d="M 6.953439040707552 24.018736134675446 L 17.306200844808384 62.65576918623819 A 17.916697508022974 17.916697508022974 0 1 1 -17.306200844808384 62.65576918623819 L -8.765172356425198 30.780216918698923 L -4.901469051268926 31.815493099109005 L -6.4704761275630185 24.148145657226706 L -11.662949835292403 30.00375978339136 L -7.79924653013613 31.039035963801442 L -16.340275018519314 62.91458823134071 A 16.916697508022974 16.916697508022974 0 1 0 16.340275018519314 62.91458823134071 L 5.987513214418485 24.277555179777966 Z"/><text text-anchor="middle" pointer-events="none" font-size="8px" fill="#000000" x="0" y="94.20964923467838" transform="rotate(180 0 91.20964923467838)" font-family="sans-serif">RECOMM…</text></g><g class="relationship" transform="translate(0.6453786872648379 55.9898401024457) rotate(293.11561430050267)"><path class="outline" fill="#A5ABB6" stroke="none" d="M 6.953439040707552 24.018736134675446 L 17.306200844808384 62.65576918623819 A 17.916697508022974 17.916697508022974 0 1 1 -17.306200844808384 62.65576918623819 L -8.765172356425198 30.780216918698923 L -4.901469051268926 31.815493099109005 L -6.4704761275630185 24.148145657226706 L -11.662949835292403 30.00375978339136 L -7.79924653013613 31.039035963801442 L -16.340275018519314 62.91458823134071 A 16.916697508022974 16.916697508022974 0 1 0 16.340275018519314 62.91458823134071 L 5.987513214418485 24.277555179777966 Z"/><text text-anchor="middle" pointer-events="none" font-size="8px" fill="#000000" x="0" y="94.20964923467838" font-family="sans-serif">SIMILAR</text></g><g class="relationship" transform="translate(-185.24618269671782 55.043015234090404) rotate(360.29182927600687)"><path class="outline" fill="#A5ABB6" stroke="none" d="M 24.018736134675446,-6.953439040707552 L 24.277555179777966,-5.987513214418485 A 261.17181104650194 261.17181104650194 0 0 1 67.80179887223835,-13.775012610500141 L 67.7096296792698,-14.770755970943753 A 262.17181104650194 262.17181104650194 0 0 0 24.018736134675446,-6.953439040707552 Z M 111.12417666385872,-15.17902669338065 L 111.05075007133343,-14.181726068939781 A 261.17181104650194 261.17181104650194 0 0 1 154.7137507331944,-7.214136166615074 L 153.99192754072732,-4.302268848412433 L 161.62841167441172,-6.015193270558999 L 155.67618165648383,-11.096625924218595 L 154.95435846401676,-8.184758606015954 A 262.17181104650194 262.17181104650194 0 0 0 111.12417666385872,-15.17902669338065"/><text text-anchor="middle" pointer-events="none" font-size="8px" fill="#000000" x="89.41313906912178" y="-12.375157119941036" font-family="sans-serif">WORK_IN</text></g><g class="relationship" transform="translate(-185.24618269671782 55.043015234090404) rotate(360.29182927600687)"><path class="outline" fill="#A5ABB6" stroke="none" d="M 24.018736134675446,6.953439040707552 L 24.277555179777966,5.987513214418485 A 261.17181104650194 261.17181104650194 0 0 0 70.71022741851571,14.027839704348708 L 70.62919429928584,15.024551113728478 A 262.17181104650194 262.17181104650194 0 0 1 24.018736134675446,6.953439040707552 Z M 108.20035542293294,15.37787059210956 L 108.13808114014398,14.379811518856343 A 261.17181104650194 261.17181104650194 0 0 0 154.7137507331944,7.214136166615074 L 153.99192754072732,4.302268848412433 L 161.62841167441172,6.015193270558999 L 155.67618165648383,11.096625924218595 L 154.95435846401676,8.184758606015954 A 262.17181104650194 262.17181104650194 0 0 1 108.20035542293294,15.37787059210956"/><text text-anchor="middle" pointer-events="none" font-size="8px" fill="#000000" x="89.4131390691218" y="18.375157119941036" font-family="sans-serif">PLAY_IN</text></g><g class="relationship" transform="translate(-185.24618269671782 55.043015234090404) rotate(416.57948569164427)"><path class="outline" fill="#A5ABB6" stroke="none" d="M 24.018736134675446,-6.953439040707552 L 24.277555179777966,-5.987513214418485 A 221.87930902045352 221.87930902045352 0 0 1 29.248680826057132,-7.258103368723454 L 29.012266419170878,-8.229755687311012 A 222.87930902045352 222.87930902045352 0 0 0 24.018736134675446,-6.953439040707552 Z M 129.83792016885562,-9.28824074090224 L 129.62195676555928,-8.311839282261047 A 221.87930902045352 221.87930902045352 0 0 1 134.61866158906935,-7.145893126547912 L 133.9032116119505,-4.232453350228409 L 141.535929396668,-5.96208314265716 L 135.57259489189448,-11.030479494973914 L 134.85714491477563,-8.117039718654413 A 222.87930902045352 222.87930902045352 0 0 0 129.83792016885562,-9.28824074090224"/><text text-anchor="middle" pointer-events="none" font-size="8px" fill="#000000" x="79.3696984744727" y="-11.035613954283633" font-family="sans-serif">KNOWN_FOR_WORKING</text></g><g class="relationship" transform="translate(-185.24618269671782 55.043015234090404) rotate(416.57948569164427)"><path class="outline" fill="#A5ABB6" stroke="none" d="M 24.018736134675446,6.953439040707552 L 24.277555179777966,5.987513214418485 A 221.87930902045352 221.87930902045352 0 0 0 33.73537007523761,8.30056033680421 L 33.519176973659135,9.276910961748882 A 222.87930902045352 222.87930902045352 0 0 1 24.018736134675446,6.953439040707552 Z M 125.31001892323468,10.24054700720805 L 125.11437100487734,9.25987280440549 A 221.87930902045352 221.87930902045352 0 0 0 134.61866158906935,7.145893126547912 L 133.9032116119505,4.232453350228409 L 141.535929396668,5.96208314265716 L 135.57259489189448,11.030479494973914 L 134.85714491477563,8.117039718654413 A 222.87930902045352 222.87930902045352 0 0 1 125.31001892323468,10.24054700720805"/><text text-anchor="middle" pointer-events="none" font-size="8px" fill="#000000" x="79.3696984744727" y="17.035613954283633" font-family="sans-serif">KNOWN_FOR_ACTING</text></g><g class="relationship" transform="translate(0.6453786872648379 55.9898401024457) rotate(484.52750681275046)"><path class="outline" fill="#A5ABB6" stroke="none" d="M 25 0.5 L 50.19415892208765 0.5 L 50.19415892208765 -0.5 L 25 -0.5 Z M 109.6441596850271 0.5 L 134.83831860711476 0.5 L 134.83831860711476 3.5 L 141.83831860711476 0 L 134.83831860711476 -3.5 L 134.83831860711476 -0.5 L 109.6441596850271 -0.5 Z"/><text text-anchor="middle" pointer-events="none" font-size="8px" fill="#000000" x="79.91915930355738" y="3" transform="rotate(180 79.91915930355738 0)" font-family="sans-serif">BELONGS_TO</text></g></g><g class="layer nodes"><g class="node" transform="translate(-185.24618269671782,55.043015234090404)"><circle class="outline" cx="0" cy="0" r="25" fill="#D9C8AE" stroke="#c0a378" stroke-width="2px"/><text text-anchor="middle" pointer-events="none" font-family="sans-serif" dy="1.5625" font-size="25" fill="#604A0E"/><text text-anchor="middle" pointer-events="none" y="5" font-size="10px" fill="#604A0E" font-family="sans-serif"> People</text></g><g class="node" transform="translate(0.6453786872648379,55.9898401024457)"><circle class="outline" cx="0" cy="0" r="25" fill="#F79767" stroke="#f36924" stroke-width="2px"/><text text-anchor="middle" pointer-events="none" font-family="sans-serif" dy="1.5625" font-size="25" fill="#FFFFFF"/><text text-anchor="middle" pointer-events="none" y="5" font-size="10px" fill="#FFFFFF" font-family="sans-serif"> Movie</text></g><g class="node" transform="translate(-93.9188842459694,193.44028474175298)"><circle class="outline" cx="0" cy="0" r="25" fill="#57C7E3" stroke="#23b3d7" stroke-width="2px"/><text text-anchor="middle" pointer-events="none" font-family="sans-serif" dy="1.5625" font-size="25" fill="#FFFFFF"/><text text-anchor="middle" pointer-events="none" y="5" font-size="10px" fill="#FFFFFF" font-family="sans-serif"> Genre</text></g></g></svg>